<?xml version="1.0" encoding="UTF-8"?>
<svg xmlns="http://www.w3.org/2000/svg" xmlns:xlink="http://www.w3.org/1999/xlink" width="128px" height="128px" viewBox="0 0 128 128"> <!-- Generator: Sketch 48.2 (47327) - http://www.bohemiancoding.com/sketch --> <title>icon-symfony</title> <desc>Created with Sketch.</desc> <defs/> <g id="Page-1" stroke="none" stroke-width="1" fill="none" fill-rule="evenodd"> <g id="icon-symfony" fill-rule="nonzero"> <g transform="translate(14.000000, 14.000000)"> <circle id="Oval" fill="#1A171B" cx="50" cy="50" r="50"/> <path d="M70.0334368,20.0074997 C65.52764,20.1646786 61.5950433,22.6479674 58.6676286,26.0830042 C55.4262029,29.8494007 53.2697631,34.3166834 51.7160161,38.8766081 C48.9367591,36.5987276 46.7924633,33.6498005 42.333508,32.363917 C38.887021,31.3743488 35.2670473,31.7830835 31.9381844,34.2632495 C30.3611902,35.4412243 29.2748164,37.2218918 28.758173,38.8956916 C27.4205905,43.2456973 30.1644563,47.1168798 31.4107848,48.5068553 L34.135567,51.4269836 C34.697317,51.9994897 36.0501663,53.4932103 35.388835,55.6347302 C34.6740698,57.9629218 31.8670548,59.4705213 28.9878694,58.5822694 C27.7019859,58.1901894 25.8546994,57.2321958 26.2682918,55.8831632 C26.4393497,55.3314754 26.8342054,54.9185771 27.0458592,54.4414886 C27.2401643,54.031713 27.3328062,53.7242946 27.3917917,53.5438684 C27.9178034,51.82635 27.1992214,49.5918412 25.3595684,49.0245396 C23.6434379,48.4985279 21.8874054,48.915243 21.2066435,51.1251167 C20.4346277,53.6354694 21.6358497,58.1915773 28.0708187,60.1755713 C35.6102041,62.4919658 41.9879224,58.3869233 42.8924821,53.0327765 C43.4622125,49.6792785 41.9480205,47.1880093 39.173968,43.9837098 L36.9137832,41.4841133 C35.5446261,40.1163441 35.0744771,37.7850297 36.4915165,35.993259 C37.6871869,34.4818428 39.3901325,33.8368192 42.1791048,34.5953031 C46.2501439,35.7007604 48.0648149,38.525471 51.0928519,40.8036984 C49.8427067,44.9045773 49.0255843,49.0207229 48.2858369,52.7118261 L47.8351185,55.4636723 C45.6706983,66.8169895 44.0184109,73.0510609 39.7246148,76.6300917 C38.8596101,77.2452755 37.6229968,78.166143 35.7590556,78.2303331 C34.7819785,78.2605198 34.4662327,77.5884323 34.4527007,77.2955867 C34.4294535,76.6096202 35.0075112,76.2952623 35.3916108,75.986456 C35.9655048,75.673486 36.8332853,75.1544137 36.7742999,73.4913701 C36.7118447,71.5261127 35.0838454,69.8221263 32.7306717,69.9001953 C30.9680467,69.9602217 28.2814315,71.6191016 28.3824008,74.655466 C28.4875337,77.7917587 31.4107848,80.1421566 35.8180411,79.993305 C38.1739906,79.9124602 43.4348016,78.9534257 48.6196254,72.7901369 C54.654187,65.7250641 56.3418657,57.6256637 57.6114415,51.6976228 L59.0284809,43.8712904 C59.8157636,43.9656672 60.6575211,44.0284694 61.573184,44.0503287 C69.0889751,44.2088956 72.8484321,40.3158538 72.9042948,37.4842038 C72.941421,35.770502 71.779754,34.0842112 70.1534896,34.1223783 C68.9893938,34.1553408 67.5269008,34.9301324 67.1757637,36.5400891 C66.832954,38.1195121 69.5674515,39.5448789 67.4300952,40.9293028 C65.9117396,41.9119315 63.1897331,42.6044905 59.3563708,42.0416996 L60.0534404,38.1892537 C61.4760314,30.8837284 63.230676,21.8974639 69.887014,21.6788706 C70.3720828,21.6542355 72.1471988,21.70073 72.1884887,22.874541 C72.2006328,23.266621 72.1034802,23.3665493 71.6444344,24.2641696 C71.1770612,24.964015 71.0007987,25.5597683 71.022658,26.2443469 C71.0868481,28.109676 72.5052754,29.335533 74.5565823,29.2616277 C77.3032238,29.1728025 78.0932823,26.4986784 78.0481758,25.1253576 C77.9371443,21.8985048 74.5361108,19.860036 70.0330898,20.0074997 L70.0334368,20.0074997 Z" id="Shape" fill="#FFFFFF"/> </g> </g> </g> </svg>